<?xml version="1.0" encoding="utf-8"?>
<!-- Generator: Adobe Illustrator 23.0.3, SVG Export Plug-In . SVG Version: 6.00 Build 0)  -->
<svg version="1.1" id="fe80fb2b-bcaf-407e-919b-306adc32f78b"
	 xmlns="http://www.w3.org/2000/svg" xmlns:xlink="http://www.w3.org/1999/xlink" x="0px" y="0px" viewBox="0 0 284 570"
	 style="enable-background:new 0 0 284 570;" xml:space="preserve">
<style type="text/css">
	.st0{fill:none;stroke:#3F3D56;stroke-miterlimit:10;}
	.st1{fill:#2F2E41;}
	.st2{fill:#FFB9B9;}
	.st3{opacity:0.1;enable-background:new    ;}
	.st4{fill:#0D69C5;}
	.st5{fill:#F2F2F2;}
</style>
<title>profile</title>
<line class="st0" x1="56.2" y1="526.8" x2="222.2" y2="526.8"/>
<path class="st1" d="M157,107.2c0,0-9.3-2.8-11.3,0.2s2.7,24.7,2.7,24.7l20.5,1.2l-7.2-18.1L157,107.2z"/>
<path class="st2" d="M85.2,285.7c0,0,18.7,41,4.3,39.8s-20-39.8-20-39.8H85.2z"/>
<path class="st2" d="M207.4,281.5c0,0-8.2,44.3,5.5,39.6s9.8-43.4,9.8-43.4L207.4,281.5z"/>
<path class="st2" d="M153.1,96.9c0,0-0.2,20.6,7.7,21.7s-4.5,12-4.5,12l-14.2,2.8l-20.4-1.5l-9-11.6c0,0,15.9-7.5,9-30.9L153.1,96.9
	z"/>
<path class="st3" d="M153.1,96.9c0,0-0.2,20.6,7.7,21.7s-4.5,12-4.5,12l-14.2,2.8l-20.4-1.5l-9-11.6c0,0,15.9-7.5,9-30.9L153.1,96.9
	z"/>
<path class="st4" d="M189.6,271.4c0,0,10.1,21.7,2.1,89.8c0,0,2.4,24.1,0.4,28.6s-17.8,65.8-17.8,65.8s-20.4,4.5-23.2-9
	c0,0,2.8-19.3,2.6-22.3s4.5-35.9,4.5-35.9l-9.7-63.6l-7.3,57.4c0,0,0,16.5-2.4,20.2s0,77.1,0,77.1s6.7,11.2-3.4,11.4
	s-19.1-0.2-20-7.3s-1.3-14.2-3.4-18.5s-4.9-53.5-4.3-70.7s-14.2-105.5-9.5-114.7S189.6,271.4,189.6,271.4z"/>
<circle class="st2" cx="142.1" cy="78.8" r="25.8"/>
<path class="st5" d="M116.3,120.7c0,0,15.7,11.6,38.5,2.4c0,0,7.5-3.7,6.9-9.2s15.7,44.9,15.7,44.9l16.5,87.9l-0.9,35.9
	c0,0-7.3-3.7-30.1,4.5s-60-9.2-60-9.2l1.3-92.2l1.3-53.7l3.4-11.8C109,120.1,110.7,116.9,116.3,120.7z"/>
<path class="st1" d="M153.8,106.3c0,0,3.8-0.6,7.4,5.2s12.2,9.5,12.2,9.5s20.8,1.3,23.9,12.5s10.5,26.4,14.2,54.6s11,73.1,12,76.7
	s-1.5,14.8,1.5,18.3s-21.3,3.4-21.3,3.4s-2.1-17.6-3.7-17.6s-1.1,11.8,0.4,20.4s-11,0-11,0s-9.7-39.3-18.9-74.8s-14.6-55-12.9-63
	s6.4-30.7,3-32.9S153.8,106.3,153.8,106.3z"/>
<path class="st1" d="M122.8,106.3c0,0-5.6,3.1-19.8,13.2s-23.9,17.8-23.9,17.8s-5.6,4.3-9,29.9S59,258.9,62,267.3
	c3,8.4,4.1,13.3,3,18.3c-1.1,4.9,22.6,4.7,23,3.7s-0.6-20.6,0.4-21.1s6.9,11.6,8,21.7s13.5,18,16.3,18s17.2-58.2,17.4-98
	s-4.7-73.3-8.4-78S122.8,106.3,122.8,106.3z"/>
<path class="st1" d="M160.6,457.4c0,0,1.7-4.7,7.7-3.2s10.1-3.9,10.1-3.9s3.2-0.4,1.1,3.7s-3.9,6.9-3.9,6.9s12.9,29.4,4.5,36.5
	s-18.1,2.8-18.1,2.8s-9.5-6.7-9-24.3c0,0-0.4-5.6-5.6-14.6s-9-22.8-2.8-25.4s7.8-2.7,7.8-2.7s-2.9,13.3,4.6,18L160.6,457.4z"/>
<path class="st1" d="M120.6,490.7c0,0-5.2-9.7,3.4-10.7s17.8-1.7,17.4,2.8s-1.5,11.4-1.5,11.4l1.5,4.9c0,0,0.4,12.2,1.9,13.8
	s9.7,14.4-7.7,14.4s-22.6-1.9-21.1-6s1.9-24.3,1.9-24.3L120.6,490.7z"/>
<path class="st1" d="M133.9,58.2c0,0,12,3.2,18.3,4.5s5.6-2.4,5.6-2.4s8.2,1.1,7.7,0.2s3.4-5.4-1.1-10.5s-3.2-9-3.2-9h-3.9l-1.1-1.5
	h-6c0,0-4.5-1.7-16.3,0s-27.9,2.1-29.2,9.2s-8,15.9-5.6,20s15.9,20.8,17.2,27.9s7.3,8.7,7.1,4.2s-6.2-19.9-1.1-20.6
	S136.3,66.6,133.9,58.2z"/>
</svg>
